<svg width="20" height="22" viewBox="0 0 20 22" fill="none" xmlns="http://www.w3.org/2000/svg">
<path d="M9.50762 17.5971H17.1643C17.3899 17.5971 17.6063 17.5075 17.7659 17.3479C17.9254 17.1884 18.015 16.972 18.015 16.7464V14.9343C18.0194 14.7364 17.9547 14.5432 17.8321 14.388C17.7094 14.2327 17.5364 14.125 17.3429 14.0835C15.3862 13.522 14.9949 11.1825 14.6121 6.51192C14.3994 3.95969 12.9106 1.40747 9.50762 1.40747C6.10466 1.40747 4.61586 3.95969 4.40317 6.51192C4.02034 11.1825 3.629 13.522 1.6723 14.0835C1.47881 14.125 1.30585 14.2327 1.18318 14.388C1.06051 14.5432 0.995809 14.7364 1.00021 14.9343V16.7464C1.00021 16.972 1.08984 17.1884 1.24939 17.3479C1.40893 17.5075 1.62532 17.5971 1.85095 17.5971H9.50762Z" stroke="#BBBBBB" stroke-width="2" stroke-linecap="round" stroke-linejoin="round"/>
<path d="M9.50739 21C9.05613 21 8.62335 20.8207 8.30426 20.5016C7.98517 20.1825 7.80591 19.7498 7.80591 19.2985V17.597H11.2089V19.2985C11.2089 19.7498 11.0296 20.1825 10.7105 20.5016C10.3914 20.8207 9.95865 21 9.50739 21Z" stroke="#BBBBBB" stroke-width="2" stroke-linecap="round" stroke-linejoin="round"/>
</svg>
